<mxfile host="app.diagrams.net" modified="2023-07-19T10:03:25.915Z" agent="Mozilla/5.0 (Windows NT 10.0; Win64; x64) AppleWebKit/537.36 (KHTML, like Gecko) Chrome/114.0.0.0 Safari/537.36" etag="FKMLBeW_UCl9zsWCtxDf" version="21.6.3" type="github">
  <diagram name="Page-1" id="c37626ed-c26b-45fb-9056-f9ebc6bb27b6">
    <mxGraphModel dx="2431" dy="1034" grid="1" gridSize="10" guides="1" tooltips="1" connect="1" arrows="1" fold="1" page="1" pageScale="1" pageWidth="1100" pageHeight="850" background="none" math="0" shadow="0">
      <root>
        <mxCell id="0" />
        <mxCell id="1" parent="0" />
        <mxCell id="1c7a67bf8fd3230f-83" value="离港网" style="whiteSpace=wrap;html=1;rounded=0;shadow=0;comic=0;strokeWidth=1;fontFamily=Verdana;fontSize=14;fillColor=#f5f5f5;strokeColor=none;verticalAlign=top;fontStyle=1" parent="1" vertex="1">
          <mxGeometry x="580" y="400" width="480" height="550" as="geometry" />
        </mxCell>
        <mxCell id="zlurTyIRt9bVNA8tWvXI-30" style="edgeStyle=orthogonalEdgeStyle;rounded=0;orthogonalLoop=1;jettySize=auto;html=1;exitX=0.5;exitY=0;exitDx=0;exitDy=0;exitPerimeter=0;entryX=0.5;entryY=1;entryDx=0;entryDy=0;entryPerimeter=0;fontFamily=Verdana;fontSize=14;fontColor=default;" edge="1" parent="1" source="1c7a67bf8fd3230f-9" target="zlurTyIRt9bVNA8tWvXI-6">
          <mxGeometry relative="1" as="geometry" />
        </mxCell>
        <mxCell id="1c7a67bf8fd3230f-9" value="登机口变更系统" style="shape=mxgraph.cisco.misc.me1100;html=1;dashed=0;fillColor=#036897;strokeColor=#ffffff;strokeWidth=2;verticalLabelPosition=bottom;verticalAlign=top;rounded=0;shadow=0;comic=0;fontFamily=Verdana;fontSize=12;" parent="1" vertex="1">
          <mxGeometry x="598.5" y="832" width="84" height="48" as="geometry" />
        </mxCell>
        <mxCell id="1c7a67bf8fd3230f-47" value="" style="shape=mxgraph.cisco.routers.router;html=1;dashed=0;fillColor=#036897;strokeColor=#ffffff;strokeWidth=2;verticalLabelPosition=bottom;verticalAlign=top;rounded=0;shadow=0;comic=0;fontFamily=Verdana;fontSize=12;" parent="1" vertex="1">
          <mxGeometry x="801" y="601" width="78" height="53" as="geometry" />
        </mxCell>
        <mxCell id="zlurTyIRt9bVNA8tWvXI-21" style="edgeStyle=orthogonalEdgeStyle;rounded=0;orthogonalLoop=1;jettySize=auto;html=1;exitX=0.5;exitY=0;exitDx=0;exitDy=0;exitPerimeter=0;entryX=0.482;entryY=0.479;entryDx=0;entryDy=0;entryPerimeter=0;fontFamily=Verdana;fontSize=14;fontColor=default;" edge="1" parent="1" source="zlurTyIRt9bVNA8tWvXI-1" target="1c7a67bf8fd3230f-47">
          <mxGeometry relative="1" as="geometry" />
        </mxCell>
        <mxCell id="zlurTyIRt9bVNA8tWvXI-1" value="配置服务器" style="shape=mxgraph.cisco.misc.me1100;html=1;dashed=0;fillColor=#036897;strokeColor=#ffffff;strokeWidth=2;verticalLabelPosition=bottom;verticalAlign=top;rounded=0;shadow=0;comic=0;fontFamily=Verdana;fontSize=12;" vertex="1" parent="1">
          <mxGeometry x="896" y="761" width="91" height="50" as="geometry" />
        </mxCell>
        <mxCell id="zlurTyIRt9bVNA8tWvXI-29" style="edgeStyle=orthogonalEdgeStyle;rounded=0;orthogonalLoop=1;jettySize=auto;html=1;exitX=0.5;exitY=0;exitDx=0;exitDy=0;exitPerimeter=0;entryX=0.5;entryY=1;entryDx=0;entryDy=0;entryPerimeter=0;fontFamily=Verdana;fontSize=14;fontColor=default;" edge="1" parent="1" source="zlurTyIRt9bVNA8tWvXI-5" target="zlurTyIRt9bVNA8tWvXI-6">
          <mxGeometry relative="1" as="geometry" />
        </mxCell>
        <mxCell id="zlurTyIRt9bVNA8tWvXI-5" value="登机口变更系统&lt;br&gt;" style="shape=mxgraph.cisco.misc.me1100;html=1;dashed=0;fillColor=#036897;strokeColor=#ffffff;strokeWidth=2;verticalLabelPosition=bottom;verticalAlign=top;rounded=0;shadow=0;comic=0;fontFamily=Verdana;fontSize=12;" vertex="1" parent="1">
          <mxGeometry x="693.5" y="830" width="84" height="50" as="geometry" />
        </mxCell>
        <mxCell id="zlurTyIRt9bVNA8tWvXI-12" style="edgeStyle=orthogonalEdgeStyle;rounded=0;orthogonalLoop=1;jettySize=auto;html=1;fontFamily=Verdana;fontSize=14;fontColor=default;exitX=1;exitY=0.5;exitDx=0;exitDy=0;exitPerimeter=0;entryX=0.51;entryY=0.645;entryDx=0;entryDy=0;entryPerimeter=0;" edge="1" parent="1" source="zlurTyIRt9bVNA8tWvXI-6" target="1c7a67bf8fd3230f-47">
          <mxGeometry relative="1" as="geometry">
            <mxPoint x="418" y="971" as="sourcePoint" />
            <mxPoint x="816" y="611" as="targetPoint" />
          </mxGeometry>
        </mxCell>
        <mxCell id="zlurTyIRt9bVNA8tWvXI-6" value="" style="shape=mxgraph.cisco.misc.route_switch_processor;html=1;dashed=0;fillColor=#036897;strokeColor=#ffffff;strokeWidth=2;verticalLabelPosition=bottom;verticalAlign=top;rounded=0;shadow=0;comic=0;fontFamily=Verdana;fontSize=12;" vertex="1" parent="1">
          <mxGeometry x="656" y="591" width="64" height="86" as="geometry" />
        </mxCell>
        <mxCell id="zlurTyIRt9bVNA8tWvXI-14" value="双流机场网络" style="whiteSpace=wrap;html=1;rounded=0;shadow=0;comic=0;strokeWidth=1;fontFamily=Verdana;fontSize=14;fillColor=#f5f5f5;strokeColor=none;fontStyle=1;verticalAlign=top;" vertex="1" parent="1">
          <mxGeometry x="90" y="840" width="384" height="410" as="geometry" />
        </mxCell>
        <mxCell id="zlurTyIRt9bVNA8tWvXI-18" style="edgeStyle=orthogonalEdgeStyle;rounded=0;orthogonalLoop=1;jettySize=auto;html=1;exitX=0;exitY=0.5;exitDx=0;exitDy=0;exitPerimeter=0;entryX=0.5;entryY=1;entryDx=0;entryDy=0;entryPerimeter=0;fontFamily=Verdana;fontSize=14;fontColor=default;" edge="1" parent="1" source="zlurTyIRt9bVNA8tWvXI-15" target="zlurTyIRt9bVNA8tWvXI-16">
          <mxGeometry relative="1" as="geometry" />
        </mxCell>
        <mxCell id="zlurTyIRt9bVNA8tWvXI-15" value="双流机场mq" style="shape=cylinder3;whiteSpace=wrap;html=1;boundedLbl=1;backgroundOutline=1;size=15;rounded=0;shadow=0;comic=0;strokeWidth=1;fontFamily=Verdana;fontSize=14;fontColor=default;fillColor=#f5f5f5;rotation=90;align=right;" vertex="1" parent="1">
          <mxGeometry x="252" y="990" width="60" height="140" as="geometry" />
        </mxCell>
        <mxCell id="zlurTyIRt9bVNA8tWvXI-28" style="edgeStyle=orthogonalEdgeStyle;rounded=0;orthogonalLoop=1;jettySize=auto;html=1;exitX=0.5;exitY=0;exitDx=0;exitDy=0;exitPerimeter=0;entryX=0;entryY=0.5;entryDx=0;entryDy=0;entryPerimeter=0;fontFamily=Verdana;fontSize=14;fontColor=default;" edge="1" parent="1" source="zlurTyIRt9bVNA8tWvXI-16" target="zlurTyIRt9bVNA8tWvXI-6">
          <mxGeometry relative="1" as="geometry" />
        </mxCell>
        <mxCell id="zlurTyIRt9bVNA8tWvXI-16" value="" style="shape=mxgraph.cisco.routers.router;html=1;dashed=0;fillColor=#036897;strokeColor=#ffffff;strokeWidth=2;verticalLabelPosition=bottom;verticalAlign=top;rounded=0;shadow=0;comic=0;fontFamily=Verdana;fontSize=12;" vertex="1" parent="1">
          <mxGeometry x="243" y="920" width="78" height="53" as="geometry" />
        </mxCell>
      </root>
    </mxGraphModel>
  </diagram>
</mxfile>
